<?xml version="1.0" encoding="UTF-8"?>
<!DOCTYPE svg PUBLIC "-//W3C//DTD SVG 1.1//EN" "http://www.w3.org/Graphics/SVG/1.1/DTD/svg11.dtd">
<!-- Creator: CorelDRAW X8 -->
<svg xmlns="http://www.w3.org/2000/svg" xml:space="preserve" width="210mm" height="297mm" version="1.1" style="shape-rendering:geometricPrecision; text-rendering:geometricPrecision; image-rendering:optimizeQuality; fill-rule:evenodd; clip-rule:evenodd"
viewBox="0 0 21000 29700"
 xmlns:xlink="http://www.w3.org/1999/xlink">
 <defs>
  <style type="text/css">
   <![CDATA[
    .fil5 {fill:#F8F2C4;fill-rule:nonzero}
    .fil3 {fill:#F7CC19;fill-rule:nonzero}
    .fil2 {fill:#DF6922;fill-rule:nonzero}
    .fil1 {fill:#D62226;fill-rule:nonzero}
    .fil4 {fill:#F4E623;fill-rule:nonzero}
    .fil0 {fill:#2B4752;fill-rule:nonzero}
   ]]>
  </style>
 </defs>
 <g id="Слой_x0020_1">
  <metadata id="CorelCorpID_0Corel-Layer"/>
  <g id="_2563862293136">
   <polygon class="fil0" points="8750,2539 9247,2539 9247,3993 9799,3993 9799,2539 10297,2539 10297,4020 10490,4020 10490,4656 10090,4656 10090,4442 8750,4442 "/>
   <path class="fil0" d="M11256 3686l0 323 389 0c196,0 193,-323 -3,-323l-386 0zm0 -712l0 307 307 0c193,0 193,-307 -2,-307l-305 0zm786 478c155,79 228,220 228,389 -2,331 -204,601 -592,601l-892 0 0 -1903 813 0c329,0 592,255 592,584 0,114 -57,253 -149,329z"/>
   <path class="fil0" d="M13839 2974c-283,0 -424,0 -704,0l0 269 647 0c0,144 0,288 0,432l-647 0c0,111 0,220 0,334 280,0 443,0 728,0 0,142 0,288 0,433 -446,0 -772,0 -1212,0 0,-637 0,-1273 0,-1903 440,0 742,0 1188,0 0,141 0,288 0,435z"/>
   <path class="fil0" d="M14094 2974c0,-147 0,-291 0,-435l1414 0c0,144 0,288 0,435l-465 0 0 1468c-160,0 -321,0 -481,0l0 -1468 -468 0z"/>
   <polygon class="fil0" points="8782,5517 8782,5420 9099,5420 9099,5517 9090,5517 9090,5981 8983,5981 8983,5517 8898,5517 8898,5981 8791,5981 8791,5517 "/>
   <path class="fil0" d="M9339 5687l39 0c11,0 21,-3 29,-7 8,-5 15,-13 21,-22 9,-15 13,-34 13,-57 0,-22 -4,-41 -13,-55 -6,-9 -13,-17 -21,-23 -8,-4 -18,-6 -29,-6l-39 0 0 170zm-107 294l0 -561 146 0c35,0 65,8 90,22 22,14 41,32 55,56 16,29 25,63 25,104 0,41 -9,75 -25,103 -13,24 -32,43 -55,56 -26,15 -56,22 -90,22l-39 0 0 198 -107 0z"/>
   <path class="fil0" d="M9767 5817c0,19 4,34 11,46 5,10 12,17 20,21 7,5 17,7 27,7 10,0 20,-2 28,-7 8,-4 15,-11 20,-21 7,-12 10,-27 10,-46l0 -233c0,-18 -3,-34 -10,-46 -5,-9 -12,-16 -20,-21 -8,-4 -17,-7 -28,-7 -10,0 -19,3 -27,7 -8,5 -15,12 -20,21 -7,12 -11,28 -11,46l0 233zm-106 0l0 -233c0,-37 7,-69 23,-95 13,-22 31,-40 53,-53 24,-15 54,-22 88,-22 35,0 64,7 89,22 22,13 40,31 53,53 15,26 23,58 23,95l0 233c0,37 -8,69 -23,95 -13,23 -31,40 -53,54 -25,14 -54,21 -89,21 -34,0 -64,-7 -88,-21 -22,-14 -40,-31 -53,-54 -16,-26 -23,-58 -23,-95z"/>
   <path class="fil0" d="M10109 5981l0 -561 107 0 0 225c0,46 -5,96 -14,148l121 -373c34,0 69,0 103,0l0 561 -106 0 0 -224c0,-47 4,-97 13,-149l-120 373c-35,0 -69,0 -104,0z"/>
   <path class="fil0" d="M10548 5863l102 -28c1,11 5,20 10,28 5,10 11,17 20,22 7,4 16,6 25,6 10,0 19,-2 26,-6 8,-5 14,-12 19,-21 8,-13 12,-30 12,-50 0,-21 -4,-39 -12,-52 -5,-9 -11,-15 -18,-19 -6,-4 -14,-5 -22,-5l-47 0 0 -96 47 0c9,0 17,-2 24,-7 8,-4 13,-10 18,-18 7,-11 10,-25 10,-41 0,-16 -3,-29 -9,-40 -5,-8 -11,-14 -19,-19 -8,-4 -17,-7 -27,-7 -12,0 -23,3 -32,8 -8,4 -14,10 -18,17 -4,8 -6,15 -6,23 0,1 0,1 0,2l-103 -21c1,-19 7,-37 16,-54 12,-21 28,-37 49,-49 26,-14 57,-22 94,-22 35,0 64,7 88,22 22,12 40,30 52,52 15,24 22,53 22,86 0,28 -6,51 -17,71 -11,18 -26,34 -46,45 19,12 33,27 44,46 12,22 19,48 19,79 0,38 -8,70 -24,97 -13,23 -31,41 -53,54 -23,14 -52,21 -86,21 -33,0 -62,-7 -87,-21 -22,-12 -40,-30 -52,-54 -9,-15 -15,-31 -19,-49z"/>
   <path class="fil0" d="M11100 5885l52 0c22,0 37,-9 48,-28 7,-12 10,-27 10,-45 0,-19 -3,-35 -10,-47 -5,-9 -12,-16 -20,-21 -8,-4 -17,-6 -28,-6l-52 0 0 147zm0 -243l52 0c11,0 19,-4 25,-11 12,-11 17,-29 17,-53 0,-23 -5,-40 -17,-51 -7,-7 -15,-10 -25,-10l-52 0 0 125zm-106 339l0 -561 158 0c31,0 57,7 79,19 20,12 37,28 49,49 14,25 21,55 21,89 0,29 -5,52 -17,71 -9,16 -21,29 -36,39 22,13 39,29 51,50 12,21 18,46 18,76 0,36 -8,67 -23,93 -13,23 -30,41 -52,54 -25,14 -55,21 -90,21l-158 0z"/>
   <path class="fil0" d="M11537 5817c0,19 3,34 10,46 6,10 12,17 20,21 8,5 17,7 27,7 11,0 20,-2 28,-7 8,-4 15,-11 20,-21 7,-12 11,-27 11,-46l0 -233c0,-18 -4,-34 -11,-46 -5,-9 -12,-16 -20,-21 -8,-4 -17,-7 -27,-7 -10,0 -20,3 -28,7 -8,5 -14,12 -20,21 -7,12 -10,28 -10,46l0 233zm-107 0l0 -233c0,-37 8,-69 23,-95 13,-22 31,-40 53,-53 25,-15 54,-22 89,-22 34,0 64,7 88,22 23,13 40,31 54,53 15,26 22,58 22,95l0 233c0,37 -7,69 -22,95 -14,23 -31,40 -54,54 -24,14 -54,21 -88,21 -35,0 -64,-7 -89,-21 -22,-14 -40,-31 -53,-54 -15,-26 -23,-58 -23,-95z"/>
   <path class="fil0" d="M11995 5885l78 0 0 -368 -43 0c-2,138 -13,261 -35,368zm-133 181l0 -181 25 0 4 -19c22,-112 33,-244 33,-394l0 -52 256 0 0 465 16 0 0 181 -107 0 0 -85 -120 0 0 85 -107 0z"/>
   <path class="fil0" d="M12315 5817l0 -233c0,-37 7,-69 23,-95 13,-22 31,-40 53,-53 25,-15 55,-22 90,-22 34,0 64,7 89,22 23,13 40,31 54,54 8,15 14,31 18,49l-103 26c-2,-10 -5,-19 -9,-26 -5,-10 -12,-17 -21,-22 -8,-4 -18,-7 -29,-7 -11,0 -20,3 -27,7 -8,5 -15,12 -21,21 -7,12 -11,28 -11,46l0 233c0,18 4,34 11,46 5,10 12,17 21,21 8,5 17,7 27,7 11,0 21,-2 29,-7 9,-5 16,-12 21,-21 4,-8 7,-17 9,-26l103 26c-4,18 -10,34 -18,49 -14,22 -31,40 -54,54 -25,14 -55,21 -89,21 -35,0 -65,-7 -90,-21 -22,-14 -40,-31 -53,-54 -16,-26 -23,-58 -23,-95z"/>
   <polygon class="fil0" points="12763,5517 12763,5420 13080,5420 13080,5517 12975,5517 12975,5981 12868,5981 12868,5517 "/>
   <path class="fil0" d="M13312 5885l52 0c22,0 37,-9 47,-28 8,-12 11,-27 11,-45 0,-19 -3,-35 -11,-47 -5,-9 -11,-16 -19,-21 -9,-4 -18,-6 -28,-6l-52 0 0 147zm0 -243l52 0c10,0 19,-4 25,-11 12,-11 17,-29 17,-53 0,-23 -5,-40 -17,-51 -7,-7 -15,-10 -25,-10l-52 0 0 125zm-106 339l0 -561 158 0c31,0 57,7 79,19 20,12 36,28 49,49 14,25 21,55 21,89 0,29 -6,52 -17,71 -9,16 -21,29 -37,39 22,13 39,29 52,50 12,21 18,46 18,76 0,36 -8,67 -23,93 -13,23 -31,41 -53,54 -25,14 -54,21 -89,21l-158 0z"/>
   <polygon class="fil0" points="13664,5981 13664,5420 13965,5420 13965,5517 13771,5517 13771,5630 13917,5630 13917,5726 13771,5726 13771,5885 13965,5885 13965,5981 "/>
   <polygon class="fil0" points="14090,5981 14090,5420 14197,5420 14197,5647 14301,5647 14301,5420 14407,5420 14407,5981 14301,5981 14301,5743 14197,5743 14197,5981 "/>
   <polygon class="fil0" points="14533,5981 14533,5420 14639,5420 14639,5647 14743,5647 14743,5420 14850,5420 14850,5981 14743,5981 14743,5743 14639,5743 14639,5981 "/>
   <path class="fil0" d="M15076 5817c0,19 3,34 10,46 5,10 12,17 20,21 8,5 17,7 27,7 11,0 20,-2 28,-7 8,-4 15,-11 20,-21 7,-12 11,-27 11,-46l0 -233c0,-18 -4,-34 -11,-46 -5,-9 -12,-16 -20,-21 -8,-4 -17,-7 -27,-7 -11,0 -20,3 -28,7 -8,5 -15,12 -20,21 -7,12 -10,28 -10,46l0 233zm-107 0l0 -233c0,-37 7,-69 23,-95 13,-22 31,-40 53,-53 25,-15 54,-22 89,-22 34,0 64,7 88,22 22,13 40,31 53,53 16,26 23,58 23,95l0 233c0,37 -7,69 -23,95 -13,23 -31,40 -53,54 -24,14 -54,21 -88,21 -35,0 -64,-7 -89,-21 -22,-14 -40,-31 -53,-54 -16,-26 -23,-58 -23,-95z"/>
   <polygon class="fil0" points="15417,5777 15735,5777 15735,5680 15417,5680 "/>
   <path class="fil0" d="M8782 6864l0 -560 107 0 0 205c17,-25 33,-51 48,-76 33,-58 50,-101 50,-129l112 0c0,26 -14,64 -43,113 -20,34 -43,70 -70,106 80,170 119,283 119,341l-106 0c0,-47 -25,-136 -73,-266 -12,14 -25,29 -37,44l0 222 -107 0z"/>
   <path class="fil0" d="M9325 6700c0,19 4,35 11,47 5,9 11,16 19,21 8,4 17,6 28,6 10,0 19,-2 27,-6 9,-5 15,-12 20,-21 7,-12 11,-28 11,-47l0 -232c0,-19 -4,-35 -11,-47 -5,-9 -11,-16 -20,-20 -8,-5 -17,-7 -27,-7 -10,0 -19,2 -28,7 -8,4 -14,11 -19,20 -7,12 -11,28 -11,47l0 232zm-107 0l0 -232c0,-37 8,-69 23,-96 13,-22 31,-40 54,-53 24,-14 53,-21 88,-21 35,0 64,7 88,21 23,13 41,31 54,53 15,27 23,59 23,96l0 232c0,37 -8,69 -23,96 -13,22 -31,40 -54,53 -24,14 -53,22 -88,22 -35,0 -64,-8 -88,-22 -23,-13 -41,-31 -54,-53 -15,-27 -23,-59 -23,-96z"/>
   <path class="fil0" d="M9667 6864l0 -560 83 0 75 284 76 -284 83 0 0 560 -107 0 0 -112c0,-70 8,-145 25,-224 3,-15 5,-29 8,-43l-56 212 -58 0 -55 -212c2,14 5,28 8,43 16,79 24,154 24,224l0 112 -106 0z"/>
   <path class="fil0" d="M10109 6864l0 -560 83 0 76 284 75 -284 83 0 0 560 -106 0 0 -112c0,-70 8,-145 24,-224 3,-15 6,-29 8,-43l-55 212 -58 0 -56 -212c3,14 5,28 8,43 17,79 25,154 25,224l0 112 -107 0z"/>
   <polygon class="fil0" points="10567,6864 10567,6304 10869,6304 10869,6400 10674,6400 10674,6514 10821,6514 10821,6610 10674,6610 10674,6768 10869,6768 10869,6864 "/>
   <path class="fil0" d="M11108 6570l40 0c11,0 20,-2 28,-7 9,-5 16,-12 21,-22 9,-15 13,-33 13,-56 0,-23 -4,-41 -13,-55 -5,-10 -12,-18 -21,-23 -8,-5 -17,-7 -28,-7l-40 0 0 170zm-107 294l0 -560 147 0c34,0 64,7 89,22 23,13 41,32 56,56 16,28 24,63 24,103 0,41 -8,75 -24,103 -14,24 -33,43 -56,57 -25,14 -55,22 -89,21l-40 0 0 198 -107 0z"/>
   <path class="fil0" d="M11436 6552l0 -248 107 0 0 248c0,18 3,32 10,44 4,8 10,14 17,18 7,4 16,6 25,6l52 0 0 -316 106 0 0 560 -106 0 0 -148 -52 0c-33,0 -62,-6 -86,-20 -21,-12 -38,-30 -51,-52 -15,-25 -22,-56 -22,-92z"/>
   <polygon class="fil0" points="11895,6864 11895,6304 12196,6304 12196,6400 12001,6400 12001,6514 12148,6514 12148,6610 12001,6610 12001,6768 12196,6768 12196,6864 "/>
   <path class="fil0" d="M12315 6700l0 -232c0,-37 7,-69 23,-96 13,-22 31,-40 53,-53 25,-14 55,-21 90,-21 34,0 64,7 89,21 23,13 40,31 54,54 8,15 14,32 18,49l-103 26c-2,-10 -5,-18 -9,-26 -5,-9 -12,-16 -21,-21 -8,-5 -18,-7 -29,-7 -11,0 -20,2 -27,7 -8,4 -15,11 -21,20 -7,12 -11,28 -11,47l0 232c0,19 4,34 11,47 5,9 12,16 21,21 8,4 17,6 27,6 11,0 21,-2 29,-6 9,-6 16,-13 21,-22 4,-7 7,-16 9,-26l103 26c-4,18 -10,34 -18,49 -14,23 -31,41 -54,54 -25,14 -55,22 -89,22 -35,0 -65,-8 -90,-22 -22,-13 -40,-31 -53,-53 -16,-27 -23,-59 -23,-96z"/>
   <path class="fil0" d="M12763 6864l0 -560 107 0 0 205c17,-25 33,-51 48,-76 34,-58 50,-101 50,-129l112 0c0,26 -14,64 -43,113 -20,34 -43,70 -70,106 80,170 119,283 119,341l-106 0c0,-47 -24,-136 -73,-266 -12,14 -24,29 -37,44l0 222 -107 0z"/>
   <path class="fil0" d="M13325 6662l78 0c-9,-60 -22,-130 -39,-211 -17,81 -30,151 -39,211zm-119 202l0 -56c0,-102 35,-270 105,-504l106 0c71,234 106,402 106,504l0 56 -107 0 0 -56c0,-15 -1,-32 -2,-50l-99 0c-2,18 -3,35 -3,50l0 56 -106 0z"/>
   <path class="fil0" d="M13749 6485c0,23 4,41 13,56 5,10 12,17 21,22 8,5 17,7 28,7l40 0 0 -170 -40 0c-11,0 -20,2 -28,7 -9,5 -16,13 -21,23 -9,14 -13,33 -13,55zm-107 379c0,-51 20,-112 60,-182 7,-12 15,-24 22,-36 -24,-13 -44,-32 -58,-58 -16,-28 -24,-63 -24,-103 0,-40 8,-75 24,-103 14,-24 33,-43 56,-56 25,-15 55,-22 89,-22l147 0 0 560 -107 0 0 -198 -16 0c-16,22 -30,43 -42,63 -30,52 -44,97 -44,135l-107 0z"/>
   <path class="fil0" d="M14734 6711c9,-6 17,-14 23,-24 8,-16 13,-34 13,-57l0 -92c0,-22 -5,-41 -13,-56 -6,-11 -14,-19 -23,-25l0 254zm-121 -81c0,23 4,41 13,57 6,10 13,18 22,24l0 -254c-9,6 -16,14 -22,25 -9,15 -13,34 -13,56l0 92zm-86 0l0 -92c0,-37 7,-69 22,-95 14,-23 31,-41 54,-54 10,-6 22,-11 35,-14l0 -71 107 0 0 71c12,3 24,8 35,14 22,13 40,31 53,54 15,26 23,58 23,95l0 92c0,37 -8,69 -23,96 -13,22 -31,40 -53,53 -11,6 -23,11 -35,14l0 71 -107 0 0 -71c-13,-3 -25,-8 -35,-14 -23,-13 -40,-31 -54,-53 -15,-27 -22,-59 -22,-96z"/>
   <path class="fil0" d="M14975 6864l0 -560 107 0 0 224c0,47 -5,96 -14,149l120 -373c35,0 70,0 104,0l0 560 -107 0 0 -224c0,-47 5,-96 14,-149l-120 373c-35,0 -70,0 -104,0z"/>
   <path class="fil0" d="M15532 6570l39 0c11,0 20,-2 29,-7 8,-5 15,-12 21,-22 9,-15 13,-33 13,-56 0,-23 -4,-41 -13,-55 -6,-10 -13,-18 -21,-23 -9,-5 -18,-7 -29,-7l-39 0 0 170zm-107 294l0 -560 146 0c35,0 65,7 90,22 22,13 41,32 55,56 16,28 25,63 25,103 0,41 -9,75 -25,103 -14,24 -32,43 -55,57 -26,14 -56,22 -90,21l-39 0 0 198 -107 0z"/>
   <path class="fil0" d="M15860 6864l0 -560 83 0 75 284 76 -284 83 0 0 560 -107 0 0 -112c0,-70 8,-145 25,-224 3,-15 5,-29 8,-43l-56 212 -58 0 -55 -212c2,14 5,28 8,43 16,79 24,154 24,224l0 112 -106 0z"/>
   <path class="fil0" d="M16422 6662l77 0c-8,-60 -21,-130 -38,-211 -18,81 -31,151 -39,211zm-120 202l0 -56c0,-102 35,-270 105,-504l107 0c70,234 105,402 105,504l0 56 -107 0 0 -56c0,-15 0,-32 -2,-50l-99 0c-2,18 -2,35 -2,50l0 56 -107 0z"/>
   <path class="fil1" d="M6452 4593c-215,-11 -450,-5 -695,20 -970,100 -1727,470 -1690,826 18,178 230,318 558,402 429,-80 905,-316 1327,-691 196,-174 363,-363 500,-557z"/>
   <path class="fil2" d="M5952 5150c96,-86 186,-175 268,-266 -292,-44 -642,-51 -1014,-12 -844,87 -1526,379 -1665,688 4,4 7,9 11,14 468,527 1543,337 2400,-424z"/>
   <path class="fil3" d="M5952 5150c10,-9 19,-17 28,-26 -317,-65 -722,-82 -1159,-37 -555,58 -1039,203 -1346,384 23,36 48,70 77,103 468,527 1543,337 2400,-424z"/>
   <path class="fil4" d="M5621 5409c-336,-129 -867,-182 -1454,-121 -260,27 -503,73 -721,133 29,55 65,106 106,153 409,461 1282,373 2069,-165z"/>
   <path class="fil0" d="M7735 3941c-175,-319 -294,-514 -371,-631 -18,-28 -63,-11 -57,22 138,809 -348,1658 -1083,2266 -586,484 -1451,887 -2050,760 -28,-6 -44,31 -20,46 255,159 743,448 1091,549 492,143 1667,-92 2188,-747 538,-675 666,-1600 302,-2265z"/>
   <path class="fil0" d="M5952 5150c-857,761 -1932,951 -2400,424 -468,-528 -152,-1572 706,-2333 857,-762 1932,-951 2400,-424 468,527 152,1571 -706,2333zm938 -2342c-525,-630 -1738,-484 -2710,326 -972,810 -1334,1977 -809,2607 525,630 1738,484 2710,-326 972,-810 1334,-1977 809,-2607z"/>
   <path class="fil5" d="M5245 5629c-317,-171 -913,-248 -1582,-179 -63,6 -125,14 -187,23 23,35 48,69 76,101 345,388 1019,387 1693,55z"/>
  </g>
 </g>
</svg>
