<?xml version="1.0" encoding="utf-8"?><!DOCTYPE svg PUBLIC "-//W3C//DTD SVG 1.1//EN" "http://www.w3.org/Graphics/SVG/1.1/DTD/svg11.dtd"><svg viewBox="0 0 473.93 473.93" xmlns="http://www.w3.org/2000/svg" xmlns:xlink="http://www.w3.org/1999/xlink"><style>:root>svg{display:none}:root>svg:target{display:block}</style><svg fill="none" viewBox="0 0 16 16" id="close" xmlns="http://www.w3.org/2000/svg"><path fill-rule="evenodd" clip-rule="evenodd" d="M15.399.949a1.5 1.5 0 0 1-.02 2.121l-5.074 4.984 5.075 4.983a1.5 1.5 0 1 1-2.102 2.14l-5.114-5.02-5.113 5.02a1.5 1.5 0 1 1-2.102-2.14l5.075-4.983L.949 3.07A1.5 1.5 0 0 1 3.05.93L8.164 5.95 13.278.93a1.5 1.5 0 0 1 2.12.019z" fill="#BBB"/></svg><svg fill="none" viewBox="0 0 26 26" id="inst" xmlns="http://www.w3.org/2000/svg"><g clip-path="url(#bclip0)" fill="#fff" fill-opacity=".5"><path d="M18.82 8.598a2.313 2.313 0 0 0-.56-.859 2.311 2.311 0 0 0-.857-.558c-.263-.102-.659-.224-1.386-.257-.788-.036-1.024-.044-3.017-.044-1.993 0-2.23.008-3.016.044-.728.033-1.124.155-1.386.257a2.31 2.31 0 0 0-.859.558c-.248.241-.439.534-.558.859-.103.263-.224.658-.257 1.386-.036.787-.044 1.023-.044 3.016s.008 2.23.044 3.017c.033.728.154 1.123.257 1.386.12.324.31.617.558.858.24.248.534.439.858.559.263.102.659.224 1.387.257.787.035 1.023.043 3.016.043s2.23-.008 3.016-.043c.728-.034 1.124-.155 1.387-.258a2.472 2.472 0 0 0 1.416-1.416c.102-.263.224-.658.257-1.386.036-.787.044-1.024.044-3.017 0-1.993-.008-2.23-.044-3.016-.033-.728-.154-1.123-.257-1.386zM13 16.833a3.833 3.833 0 1 1 0-7.666 3.833 3.833 0 0 1 0 7.666zm3.985-6.922a.896.896 0 1 1 0-1.792.896.896 0 0 1 0 1.792z"/><path d="M15.488 13a2.488 2.488 0 1 1-4.976 0 2.488 2.488 0 0 1 4.976 0z"/><path d="M24.125 0H1.875C.84 0 0 .84 0 1.875v22.25C0 25.16.84 26 1.875 26h22.25C25.16 26 26 25.16 26 24.125V1.875C26 .84 25.16 0 24.125 0zM20.42 16.078c-.036.794-.163 1.337-.347 1.812a3.817 3.817 0 0 1-2.183 2.183c-.475.184-1.018.31-1.812.347-.796.036-1.05.045-3.078.045-2.027 0-2.281-.009-3.078-.045-.794-.037-1.337-.163-1.811-.347a3.659 3.659 0 0 1-1.323-.861 3.658 3.658 0 0 1-.86-1.322c-.185-.475-.312-1.018-.348-1.812-.036-.796-.045-1.05-.045-3.078 0-2.027.009-2.282.045-3.078.036-.794.162-1.337.347-1.812.187-.498.481-.949.861-1.322.373-.38.824-.673 1.322-.86.475-.185 1.018-.312 1.812-.348.796-.036 1.05-.045 3.078-.045 2.027 0 2.282.009 3.078.045.794.036 1.337.163 1.812.347.498.187.95.481 1.322.861.38.373.674.824.86 1.322.186.475.312 1.018.348 1.812.036.796.045 1.05.045 3.078 0 2.027-.009 2.282-.045 3.078z"/></g><defs><clipPath id="bclip0"><rect width="26" height="26" rx="4" fill="#fff"/></clipPath></defs></svg><svg fill="none" viewBox="0 0 12 17" id="location" xmlns="http://www.w3.org/2000/svg"><path d="M6 0C2.692 0 0 2.762 0 6.157c0 4.213 5.37 10.398 5.598 10.66.215.244.59.244.804 0C6.631 16.554 12 10.37 12 6.156 12 2.762 9.308 0 6 0zm0 9.254c-1.665 0-3.019-1.39-3.019-3.097 0-1.708 1.354-3.098 3.019-3.098s3.019 1.39 3.019 3.098S7.665 9.254 6 9.254z" fill="#D75846"/></svg><svg fill="none" viewBox="0 0 26 26" id="vk" xmlns="http://www.w3.org/2000/svg"><path d="M24.617 0H1.383C.619 0 0 .62 0 1.383v23.234C0 25.381.619 26 1.383 26h23.234c.764 0 1.383-.62 1.383-1.383V1.383C26 .619 25.381 0 24.617 0zm-3.909 14.644c.71.691 1.458 1.342 2.095 2.107.281.337.547.686.75 1.078.287.56.027 1.175-.475 1.208l-3.113-.001c-.804.066-1.444-.258-1.984-.807-.43-.439-.83-.907-1.245-1.36a2.932 2.932 0 0 0-.56-.499c-.424-.275-.793-.191-1.036.252-.248.45-.305.95-.328 1.453-.035.734-.256.926-.992.96-1.574.074-3.068-.165-4.456-.958-1.225-.7-2.172-1.688-2.998-2.806-1.608-2.18-2.84-4.574-3.947-7.036-.249-.554-.067-.851.544-.863a84.863 84.863 0 0 1 3.05 0c.413.006.686.242.845.632.549 1.352 1.223 2.637 2.066 3.83.225.317.455.633.781.858.36.247.636.166.806-.237.109-.256.156-.529.179-.803.08-.94.09-1.879-.05-2.815-.086-.585-.416-.963-1-1.074-.297-.056-.253-.166-.109-.336.25-.294.487-.475.956-.475h3.519c.555.108.678.357.753.915l.004 3.91c-.006.216.108.856.496.998.31.102.517-.147.703-.344.843-.895 1.444-1.952 1.982-3.045.237-.482.443-.982.642-1.482.147-.37.378-.552.795-.545l3.387.004c.1 0 .202 0 .3.017.571.098.727.344.551.901-.278.875-.818 1.604-1.347 2.335-.565.781-1.169 1.537-1.73 2.322-.513.72-.472 1.082.166 1.706z" fill="#fff" fill-opacity=".5"/></svg><svg viewBox="0 0 112.196 112.196" id="vk-2" xmlns="http://www.w3.org/2000/svg"><circle cx="56.098" cy="56.098" r="56.098" fill="#4d76a1"/><path d="M53.979 80.702h4.403s1.33-.146 2.009-.878c.625-.672.605-1.934.605-1.934s-.086-5.908 2.656-6.778c2.703-.857 6.174 5.71 9.853 8.235 2.782 1.911 4.896 1.492 4.896 1.492l9.837-.137s5.146-.317 2.706-4.363c-.2-.331-1.421-2.993-7.314-8.463-6.168-5.725-5.342-4.799 2.088-14.702 4.525-6.031 6.334-9.713 5.769-11.29-.539-1.502-3.867-1.105-3.867-1.105l-11.076.069s-.821-.112-1.43.252c-.595.357-.978 1.189-.978 1.189s-1.753 4.667-4.091 8.636c-4.932 8.375-6.904 8.817-7.71 8.297-1.875-1.212-1.407-4.869-1.407-7.467 0-8.116 1.231-11.5-2.397-12.376-1.204-.291-2.09-.483-5.169-.514-3.952-.041-7.297.012-9.191.94-1.26.617-2.232 1.992-1.64 2.071.732.098 2.39.447 3.269 1.644 1.135 1.544 1.095 5.012 1.095 5.012s.652 9.554-1.523 10.741c-1.493.814-3.541-.848-7.938-8.446-2.253-3.892-3.954-8.194-3.954-8.194s-.328-.804-.913-1.234c-.71-.521-1.702-.687-1.702-.687l-10.525.069s-1.58.044-2.16.731c-.516.611-.041 1.875-.041 1.875s8.24 19.278 17.57 28.993c8.555 8.907 18.27 8.322 18.27 8.322z" fill-rule="evenodd" clip-rule="evenodd" fill="#fff"/></svg><svg viewBox="0 0 473.931 473.931" id="youtube-2" xmlns="http://www.w3.org/2000/svg"><circle cx="236.966" cy="236.966" r="236.966" fill="#d42428"/><path d="M404.518 69.38c92.541 92.549 92.549 242.593 0 335.142-92.541 92.541-242.593 92.545-335.142 0L404.518 69.38z" fill="#cc202d"/><path d="M469.168 284.426L351.886 167.148l-138.322 15.749-83.669 129.532 156.342 156.338c91.92-19.445 164.185-92.155 182.931-184.341z" fill="#ba202e"/><path d="M360.971 191.238c0-19.865-16.093-35.966-35.947-35.966H156.372c-19.85 0-35.94 16.105-35.94 35.966v96.444c0 19.865 16.093 35.966 35.94 35.966h168.649c19.858 0 35.947-16.105 35.947-35.966v-96.444h.003zM216.64 280.146v-90.584l68.695 45.294-68.695 45.29z" fill="#fff"/></svg></svg>